<?xml version="1.0" encoding="utf-8"?>
<!-- Generator: Adobe Illustrator 16.0.3, SVG Export Plug-In . SVG Version: 6.00 Build 0)  -->
<!DOCTYPE svg PUBLIC "-//W3C//DTD SVG 1.1//EN" "http://www.w3.org/Graphics/SVG/1.1/DTD/svg11.dtd">
<svg version="1.1" id="Capa_1" xmlns="http://www.w3.org/2000/svg" xmlns:xlink="http://www.w3.org/1999/xlink" x="0px" y="0px"
	 width="731.338px" height="107.717px" viewBox="-140.984 0.824 731.338 107.717"
	 enable-background="new -140.984 0.824 731.338 107.717" xml:space="preserve">
<g display="none">
	<path display="inline" fill="#11264E" d="M47.869,130.829h-1.826v3.273h-2.4v-10.922h4.461c2.604,0,4.181,1.545,4.181,3.775v0.033
		C52.284,129.517,50.318,130.829,47.869,130.829 M49.851,127.007c0-1.076-0.75-1.654-1.952-1.654h-1.856v3.34h1.904
		c1.201,0,1.904-0.721,1.904-1.652V127.007z"/>
	<path display="inline" fill="#11264E" d="M68.503,134.104l-2.341-3.492h-1.888v3.492h-2.401v-10.922h4.991
		c2.574,0,4.119,1.359,4.119,3.605v0.031c0,1.762-0.952,2.869-2.34,3.385l2.668,3.898L68.503,134.104L68.503,134.104z
		 M68.55,126.911c0-1.027-0.718-1.561-1.889-1.561h-2.387v3.139h2.435c1.17,0,1.841-0.625,1.841-1.545V126.911z"/>
	<path display="inline" fill="#11264E" d="M86.268,134.292c-3.37,0-5.788-2.512-5.788-5.617v-0.027c0-3.105,2.45-5.648,5.82-5.648
		c3.37,0,5.787,2.512,5.787,5.615v0.033C92.087,131.749,89.638,134.292,86.268,134.292 M89.577,128.646
		c0-1.873-1.373-3.436-3.309-3.436c-1.935,0-3.275,1.529-3.275,3.4v0.031c0,1.871,1.373,3.432,3.308,3.432
		c1.936,0,3.276-1.527,3.276-3.4V128.646z"/>
	<path display="inline" fill="#11264E" d="M106.265,130.829h-1.826v3.273h-2.401v-10.922h4.461c2.604,0,4.181,1.545,4.181,3.775
		v0.033C110.679,129.517,108.714,130.829,106.265,130.829 M108.247,127.007c0-1.076-0.75-1.654-1.951-1.654h-1.856v3.34h1.903
		c1.202,0,1.904-0.721,1.904-1.652V127.007z"/>
	<rect x="120.379" y="123.183" display="inline" fill="#11264E" width="2.402" height="10.924"/>
	<polygon display="inline" fill="#11264E" points="133.319,134.104 133.319,123.183 141.556,123.183 141.556,125.321 
		135.706,125.321 135.706,127.536 140.853,127.536 140.853,129.673 135.706,129.673 135.706,131.966 141.634,131.966 
		141.634,134.104 	"/>
	<path display="inline" fill="#11264E" d="M155.84,134.104h-4.258v-10.922h4.258c3.434,0,5.805,2.357,5.805,5.432v0.031
		C161.645,131.718,159.274,134.104,155.84,134.104 M159.133,128.646c0-1.938-1.326-3.295-3.293-3.295h-1.855v6.584h1.855
		c1.967,0,3.293-1.324,3.293-3.262V128.646z"/>
	<path display="inline" fill="#11264E" d="M178.942,134.104l-0.999-2.447h-4.618l-0.998,2.447h-2.448l4.68-10.996h2.215l4.68,10.996
		H178.942z M175.635,125.993l-1.452,3.541h2.903L175.635,125.993z"/>
	<path display="inline" fill="#11264E" d="M195.21,134.104h-4.26v-10.922h4.26c3.432,0,5.804,2.357,5.804,5.432v0.031
		C201.014,131.718,198.642,134.104,195.21,134.104 M198.502,128.646c0-1.938-1.326-3.295-3.292-3.295h-1.856v6.584h1.856
		c1.966,0,3.292-1.324,3.292-3.262V128.646z"/>
	<polygon display="inline" fill="#11264E" points="210.963,134.104 210.963,123.183 219.2,123.183 219.2,125.321 213.35,125.321 
		213.35,127.536 218.497,127.536 218.497,129.673 213.35,129.673 213.35,131.966 219.278,131.966 219.278,134.104 	"/>
	<path display="inline" fill="#11264E" d="M233.111,134.261c-1.654,0-3.323-0.578-4.635-1.748l1.42-1.697
		c0.981,0.811,2.014,1.324,3.262,1.324c0.982,0,1.574-0.391,1.574-1.029v-0.031c0-0.607-0.375-0.92-2.199-1.389
		c-2.199-0.563-3.619-1.172-3.619-3.34v-0.029c0-1.98,1.592-3.293,3.822-3.293c1.592,0,2.949,0.5,4.057,1.389l-1.248,1.811
		c-0.968-0.67-1.919-1.074-2.84-1.074c-0.92,0-1.404,0.422-1.404,0.949v0.031c0,0.719,0.469,0.951,2.355,1.438
		c2.216,0.577,3.464,1.373,3.464,3.273v0.033C237.12,133.044,235.465,134.261,233.111,134.261"/>
	<path display="inline" fill="#11264E" d="M263.736,130.829h-1.825v3.273h-2.402v-10.922h4.462c2.605,0,4.182,1.545,4.182,3.775
		v0.033C268.15,129.517,266.186,130.829,263.736,130.829 M265.718,127.007c0-1.076-0.75-1.654-1.952-1.654h-1.854v3.34h1.902
		c1.201,0,1.903-0.721,1.903-1.652V127.007z"/>
	<polygon display="inline" fill="#11264E" points="277.742,134.104 277.742,123.183 280.145,123.183 280.145,131.921 
		285.588,131.921 285.588,134.104 	"/>
	<path display="inline" fill="#11264E" d="M303.336,134.104l-0.999-2.447h-4.616l-1,2.447h-2.449l4.683-10.996h2.215l4.681,10.996
		H303.336z M300.029,125.993l-1.451,3.541h2.902L300.029,125.993z"/>
	<polygon display="inline" fill="#11264E" points="318.885,125.399 318.885,134.104 316.482,134.104 316.482,125.399 
		313.16,125.399 313.16,123.183 322.208,123.183 322.208,125.399 	"/>
	<rect x="331.969" y="123.183" display="inline" fill="#11264E" width="2.402" height="10.924"/>
	<polygon display="inline" fill="#11264E" points="352.571,134.104 347.281,127.163 347.281,134.104 344.911,134.104 
		344.911,123.183 347.125,123.183 352.243,129.907 352.243,123.183 354.615,123.183 354.615,134.104 	"/>
	<path display="inline" fill="#11264E" d="M369.602,134.276c-2.934,0-4.729-1.641-4.729-4.854v-6.242h2.403v6.18
		c0,1.779,0.89,2.699,2.354,2.699c1.467,0,2.356-0.891,2.356-2.619v-6.26h2.4v6.164
		C374.391,132.653,372.535,134.276,369.602,134.276"/>
	<polygon display="inline" fill="#11264E" points="393.185,134.104 393.185,126.974 390.113,131.64 390.05,131.64 387.007,127.021 
		387.007,134.104 384.653,134.104 384.653,123.183 387.242,123.183 390.113,127.802 392.984,123.183 395.573,123.183 
		395.573,134.104 	"/>
	<path display="inline" fill="#11264E" d="M48.212,103.966c-0.84,0-1.573-0.123-2.192-0.363c-0.619-0.244-1.178-0.641-1.675-1.188
		c-0.491-0.549-0.937-1.24-1.336-2.08L30.56,73.266h-0.818l-9.837,22.263c-1.49,3.349-3.021,5.634-4.583,6.841
		c-0.666,0.518-1.266,0.887-1.809,1.109c-0.538,0.223-1.265,0.387-2.182,0.486v0.865h12.603v-0.865
		c-0.589-0.031-1.045-0.088-1.361-0.17c-0.318-0.076-0.677-0.234-1.071-0.475c-0.609-0.338-1.1-0.84-1.474-1.506
		c-0.379-0.66-0.564-1.34-0.564-2.016c0-0.799,0.159-1.586,0.487-2.371l0.993-2.304h13.114l0.513,1.132
		c0.102,0.189,0.198,0.391,0.287,0.594c0.087,0.21,0.152,0.358,0.198,0.445c0.723,1.552,1.193,2.623,1.409,3.21
		c0.21,0.59,0.317,1.096,0.317,1.506c0,0.666-0.267,1.158-0.81,1.477c-0.538,0.316-1.388,0.477-2.555,0.477h-2.351v0.865H49.03
		v-0.865h-0.818V103.966z M21.323,94.308l6.067-13.801l6.228,13.801H21.323z"/>
	<path display="inline" fill="#11264E" d="M92.395,91.138c-0.415,1.418-0.835,2.673-1.261,3.771
		c-0.43,1.091-0.881,2.021-1.352,2.791c-0.476,0.768-1.019,1.542-1.638,2.325c-1.035,1.254-2.253,2.23-3.657,2.934
		c-1.403,0.703-2.893,1.057-4.475,1.057h-8.02V80.333c0-1.921,0.46-3.339,1.377-4.256c0.912-0.917,2.325-1.372,4.23-1.372h2.237
		v-0.819h-21.11v0.819h1.11c3.748,0,5.622,1.874,5.622,5.628v18.005c0,3.777-1.874,5.674-5.622,5.674h-1.151l0.041,0.818h34.487
		V91.138H92.395z"/>
	<path display="inline" fill="#11264E" d="M136.413,91.983c-0.712,2.212-1.352,3.887-1.92,5.02
		c-0.567,1.127-1.315,2.252-2.248,3.375c-2.039,2.42-4.788,3.635-8.26,3.635h-9.904l22.153-29.307v-0.819h-27.356v11.296h0.774
		c0.65-1.861,1.219-3.257,1.705-4.188c0.492-0.927,1.146-1.858,1.972-2.791c2.038-2.36,4.998-3.543,8.884-3.543h6.621l-22.26,29.306
		v0.865h30.658V91.983H136.413z"/>
	<path display="inline" fill="#11264E" d="M176.11,73.886v0.819c1.224,0.03,2.161,0.117,2.812,0.266
		c0.651,0.149,1.271,0.405,1.863,0.773c2.063,1.271,3.099,3.677,3.099,7.221v11.076c0,3.252-0.876,5.776-2.632,7.575
		c-0.963,0.947-2.254,1.688-3.877,2.227c-1.628,0.537-3.374,0.811-5.254,0.811c-2.14,0-3.984-0.35-5.535-1.039
		c-1.552-0.697-2.74-1.688-3.563-2.973c-0.83-1.283-1.245-2.819-1.245-4.606v-15.7c0-1.905,0.466-3.324,1.397-4.245
		c0.933-0.922,2.34-1.383,4.23-1.383h2.458v-0.819h-21.461v0.819h1.259c3.754,0,5.628,1.874,5.628,5.628v15.239
		c0,3.112,1.209,5.504,3.631,7.174c1.285,0.871,2.908,1.541,4.875,2.018c1.961,0.473,4.148,0.707,6.554,0.707
		c3.268,0,6.079-0.438,8.439-1.325c1.127-0.415,2.182-1.097,3.17-2.038c1.787-1.746,2.678-4.257,2.678-7.534V82.238
		c0-1.436,0.227-2.68,0.666-3.732c0.446-1.056,1.086-1.905,1.927-2.54c0.577-0.41,1.136-0.707,1.684-0.886
		c0.548-0.175,1.286-0.303,2.218-0.374v-0.819L176.11,73.886L176.11,73.886z"/>
	<path display="inline" fill="#11264E" d="M218.762,90.851v0.819h2.677c3.75,0,5.629,1.88,5.629,5.628v1.593
		c0,1.686-0.732,3.031-2.191,4.035c-0.77,0.52-1.781,0.934-3.037,1.248c-1.255,0.318-2.509,0.479-3.764,0.479
		c-0.979,0-1.905-0.1-2.791-0.299c-0.886-0.197-1.726-0.518-2.515-0.939c-0.794-0.43-1.48-0.932-2.064-1.506
		c-0.582-0.578-1.1-1.25-1.561-2.02c-0.267-0.471-0.508-1.08-0.727-1.828c-0.227-0.741-0.41-1.505-0.559-2.277
		c-0.144-0.778-0.262-1.664-0.354-2.673c-0.087-1.004-0.133-2.015-0.133-3.032c0-3.41,0.277-6.196,0.834-8.354
		c0.554-2.154,1.439-3.846,2.668-5.073c0.738-0.738,1.705-1.326,2.898-1.769c1.198-0.443,2.402-0.665,3.61-0.665
		c2.335,0,4.604,0.609,6.815,1.838c2.207,1.226,4.029,2.896,5.479,5.003c0.518,0.729,0.988,1.563,1.42,2.517
		c0.43,0.952,0.891,2.235,1.396,3.846h0.729l-0.222-13.36h-0.819c-0.635,0.965-1.213,1.654-1.74,2.084
		c-0.521,0.433-1.061,0.643-1.604,0.643c-0.531,0-1.454-0.329-2.771-0.994c-1.756-0.87-3.367-1.505-4.838-1.895
		c-1.471-0.391-2.971-0.591-4.505-0.591c-1.537,0-3.078,0.217-4.62,0.646c-1.541,0.425-3.006,1.034-4.388,1.815
		c-1.377,0.778-2.642,1.741-3.795,2.88c-0.993,1.02-1.817,2.095-2.483,3.229s-1.173,2.371-1.525,3.692
		c-0.358,1.319-0.533,2.655-0.533,4.02c0,2.243,0.456,4.338,1.373,6.289c0.916,1.949,2.201,3.646,3.866,5.085
		c1.659,1.438,3.614,2.549,5.868,3.332c2.254,0.785,4.681,1.174,7.276,1.174c1.372,0,2.535-0.098,3.479-0.297
		c0.947-0.201,2.223-0.59,3.83-1.162c0.994-0.416,1.763-0.688,2.313-0.811c0.56-0.127,1.157-0.189,1.81-0.189
		c0.735,0,1.352,0.104,1.849,0.311c0.497,0.209,1.073,0.623,1.741,1.244h0.818v-7.269c0-1.905,0.461-3.316,1.383-4.24
		c0.922-0.927,2.34-1.388,4.24-1.388h0.711v-0.819H218.762z"/>
	<path display="inline" fill="#11264E" d="M283.039,103.966c-0.846,0-1.571-0.123-2.196-0.363c-0.62-0.244-1.178-0.641-1.67-1.188
		c-0.496-0.549-0.942-1.24-1.341-2.08l-12.449-27.069h-0.818l-9.832,22.263c-1.496,3.349-3.021,5.634-4.588,6.841
		c-0.666,0.518-1.265,0.887-1.804,1.109c-0.543,0.223-1.271,0.387-2.182,0.486v0.865h12.603v-0.865
		c-0.589-0.031-1.045-0.088-1.361-0.17c-0.316-0.076-0.676-0.234-1.074-0.475c-0.604-0.338-1.098-0.84-1.471-1.506
		c-0.379-0.66-0.567-1.34-0.567-2.016c0-0.799,0.164-1.586,0.485-2.371l0.998-2.304h13.114l0.507,1.132
		c0.104,0.189,0.2,0.391,0.287,0.594c0.092,0.21,0.159,0.358,0.2,0.445c0.726,1.552,1.192,2.623,1.407,3.21
		c0.215,0.59,0.322,1.096,0.322,1.506c0,0.666-0.271,1.158-0.811,1.477c-0.538,0.316-1.395,0.477-2.563,0.477h-2.346v0.865h17.965
		v-0.865h-0.817L283.039,103.966L283.039,103.966z M256.15,94.308l6.065-13.801l6.224,13.801H256.15z"/>
	<path display="inline" fill="#11264E" d="M335.967,103.966c-1.787,0-3.159-0.316-4.116-0.953c-0.484-0.365-1.104-1.014-1.849-1.938
		c-0.748-0.922-1.537-2.008-2.361-3.27c-0.312-0.456-0.584-0.858-0.817-1.219c-0.235-0.354-0.601-0.881-1.085-1.593l-0.732-1.105
		c-1.239-0.28-2.346-0.595-3.323-0.94c-0.974-0.351-1.939-0.774-2.896-1.275c-0.963-0.502-2.033-1.137-3.211-1.904V89.68
		c2.392,0,4.168-0.047,5.336-0.133c1.536-0.133,3.077-0.389,4.629-0.771c1.552-0.386,2.775-0.824,3.677-1.313
		c2.421-1.414,3.63-3.293,3.63-5.624c0-0.854-0.184-1.72-0.563-2.59c-0.374-0.871-0.881-1.629-1.518-2.264
		c-1.104-1.121-2.604-1.915-4.494-2.394c-1.892-0.471-4.46-0.706-7.714-0.706h-23.984v0.819h0.84c1.921,0,3.339,0.455,4.256,1.372
		c0.916,0.917,1.372,2.335,1.372,4.256v18.003c0,1.906-0.461,3.318-1.383,4.246c-0.927,0.922-2.341,1.383-4.245,1.383h-0.84v0.865
		h19.536v-0.865h-0.906c-1.89,0-3.303-0.467-4.229-1.396c-0.933-0.928-1.396-2.342-1.396-4.23v-8.659h6.954l10.703,15.153h11.604
		v-0.865L335.967,103.966L335.967,103.966z M307.573,88.859V74.706h8.951c5.977,0,8.967,2.345,8.967,7.041
		c0,1.639-0.328,2.979-0.983,4.02c-0.655,1.045-1.654,1.818-2.99,2.33c-1.337,0.507-3.048,0.765-5.126,0.765L307.573,88.859
		L307.573,88.859z"/>
	<path display="inline" fill="#11264E" d="M382.614,103.966c-0.848,0-1.577-0.123-2.197-0.363c-0.619-0.244-1.178-0.641-1.669-1.188
		c-0.497-0.549-0.942-1.24-1.342-2.08l-12.449-27.069h-0.819l-9.832,22.263c-1.495,3.349-3.021,5.634-4.588,6.841
		c-0.666,0.518-1.265,0.887-1.803,1.109c-0.543,0.223-1.271,0.387-2.188,0.486v0.865h12.607v-0.865
		c-0.595-0.031-1.045-0.088-1.362-0.17c-0.315-0.076-0.676-0.234-1.073-0.475c-0.604-0.338-1.098-0.84-1.477-1.506
		c-0.374-0.66-0.563-1.34-0.563-2.016c0-0.799,0.164-1.586,0.484-2.371l0.999-2.304h13.114l0.507,1.132
		c0.104,0.189,0.2,0.391,0.287,0.594c0.092,0.21,0.158,0.358,0.199,0.445c0.723,1.552,1.191,2.623,1.408,3.21
		c0.214,0.59,0.321,1.096,0.321,1.506c0,0.666-0.271,1.158-0.81,1.477c-0.543,0.316-1.395,0.477-2.563,0.477h-2.345v0.865h17.964
		v-0.865h-0.815v0.002H382.614z M355.719,94.308l6.068-13.801l6.227,13.801H355.719z"/>
	<path display="inline" fill="#11264E" d="M411.976,73.886v0.819h2.038c1.303,0,2.355,0.302,3.165,0.906
		c0.814,0.607,1.221,1.396,1.221,2.371c0,0.84-0.468,1.854-1.396,3.034l-6.887,9.061l-7.688-10.61
		c-0.728-1.05-1.163-1.71-1.312-1.979c-0.148-0.276-0.22-0.568-0.22-0.876c0-0.619,0.256-1.103,0.763-1.438
		c0.513-0.343,1.225-0.512,2.141-0.512h2.307v-0.773H386.28v0.819h0.552c1.804,0,3.273,0.313,4.41,0.942
		c1.137,0.624,2.299,1.751,3.478,3.374l9.258,12.646v6.668c0,1.904-0.46,3.318-1.382,4.244c-0.922,0.922-2.335,1.383-4.238,1.383
		h-2.173v0.865h22.04v-0.865h-2.085c-1.891,0-3.298-0.467-4.229-1.396c-0.933-0.928-1.397-2.342-1.397-4.229V90.85l7.801-10.298
		c0.705-0.917,1.441-1.741,2.199-2.481c0.766-0.737,1.496-1.321,2.208-1.764c0.706-0.436,1.484-0.789,2.324-1.06
		c0.84-0.271,1.786-0.472,2.837-0.589v-0.773L411.976,73.886L411.976,73.886z"/>
	<path display="inline" fill="#11264E" d="M279.794,37.311c1.966-2.638,4.065-5.142,6.159-7.65c2.107-2.495,4.268-4.94,6.449-7.361
		c2.188-2.415,4.404-4.804,6.654-7.159c2.242-2.357,4.521-4.684,6.815-6.993l1.544-1.554l1.541,1.554l3.532,3.561l3.491,3.602
		c2.304,2.426,4.6,4.856,6.842,7.343c2.247,2.479,4.467,4.987,6.636,7.549c2.147,2.58,4.31,5.145,6.324,7.857
		c-2.713-2.016-5.279-4.178-7.859-6.324c-2.559-2.169-5.065-4.389-7.548-6.637c-2.485-2.241-4.917-4.538-7.341-6.843l-3.604-3.489
		l-3.56-3.531h3.085c-2.309,2.295-4.635,4.572-6.993,6.816c-2.354,2.25-4.743,4.464-7.159,6.654
		c-2.421,2.182-4.865,4.341-7.361,6.449C284.936,33.246,282.432,35.345,279.794,37.311"/>
	<path display="inline" fill="#11264E" d="M133.458,43.624c-0.409-0.927-0.979-1.741-1.715-2.433
		c-0.948-0.947-2.096-1.705-3.437-2.283c-1.342-0.574-3.477-1.24-6.401-1.992l-1.726-0.446l-1.086-0.266
		c-0.194-0.026-0.558-0.123-1.085-0.287c-1.951-0.471-3.467-0.871-4.552-1.193c-1.086-0.326-1.973-0.659-2.658-0.999
		c-0.688-0.338-1.214-0.694-1.588-1.063c-0.794-0.753-1.193-1.645-1.193-2.678c0-0.55,0.138-1.116,0.42-1.705s0.655-1.122,1.132-1.6
		c0.66-0.66,1.475-1.162,2.433-1.506c0.963-0.338,2.054-0.507,3.283-0.507c1.638,0,3.256,0.216,4.858,0.651
		c1.604,0.438,3.052,1.033,4.342,1.797c1.291,0.758,2.367,1.644,3.223,2.646c1.183,1.43,2.236,3.425,3.169,5.981h0.773v-10.61
		h-0.773c-0.502,1.695-1.331,2.545-2.483,2.545c-0.456,0-1.321-0.316-2.591-0.953c-3.616-1.874-7.108-2.811-10.477-2.811
		c-2.229,0-4.262,0.384-6.09,1.152c-1.834,0.768-3.257,1.833-4.275,3.199c-1.02,1.361-1.531,2.903-1.531,4.618
		c0,1.414,0.461,2.715,1.377,3.897c0.62,0.84,1.353,1.537,2.202,2.079c0.85,0.549,2.018,1.096,3.513,1.644
		c1.327,0.519,3.718,1.24,7.174,2.166l2.219,0.599c1.813,0.487,3.24,0.912,4.286,1.267c1.038,0.354,1.889,0.702,2.545,1.04
		c0.654,0.343,1.192,0.712,1.607,1.104c0.901,0.901,1.353,1.915,1.353,3.037c0,1.065-0.333,2.019-0.999,2.857
		c-0.665,0.84-1.593,1.501-2.781,1.971c-1.188,0.472-2.498,0.707-3.932,0.707c-1.608,0-3.309-0.287-5.097-0.86
		c-1.787-0.577-3.492-1.388-5.126-2.427c-1.633-1.04-2.969-2.166-4.019-3.38c-1.741-2.063-2.771-4.368-3.078-6.908h-0.778v14.309
		h0.778c0.236-1.021,0.717-1.804,1.45-2.36c0.73-0.553,1.618-0.83,2.667-0.83c0.548,0,1.132,0.087,1.751,0.256
		c0.62,0.169,1.521,0.492,2.705,0.963c1.812,0.77,3.354,1.296,4.617,1.582c1.261,0.292,2.607,0.438,4.041,0.438
		c2.054,0,3.882-0.282,5.484-0.847c1.598-0.559,2.95-1.396,4.041-2.523c0.84-0.811,1.49-1.751,1.95-2.822
		c0.456-1.07,0.687-2.14,0.687-3.2C134.067,45.56,133.862,44.556,133.458,43.624"/>
	<path display="inline" fill="#11264E" d="M178.056,54.613c-0.847,0-1.573-0.123-2.197-0.364c-0.62-0.245-1.178-0.64-1.67-1.188
		c-0.497-0.547-0.942-1.237-1.341-2.077l-12.449-27.069h-0.82l-9.832,22.261c-1.495,3.351-3.021,5.633-4.587,6.842
		c-0.666,0.519-1.266,0.887-1.803,1.11c-0.543,0.221-1.271,0.385-2.182,0.487v0.863h12.603v-0.863
		c-0.595-0.031-1.045-0.087-1.363-0.169c-0.316-0.077-0.675-0.236-1.074-0.478c-0.604-0.338-1.097-0.84-1.475-1.506
		c-0.374-0.66-0.563-1.336-0.563-2.012c0-0.799,0.164-1.588,0.485-2.371l0.999-2.305h13.115l0.507,1.132
		c0.103,0.188,0.199,0.389,0.286,0.594c0.092,0.21,0.159,0.359,0.2,0.446c0.727,1.551,1.192,2.622,1.408,3.211
		c0.215,0.589,0.322,1.095,0.322,1.505c0,0.666-0.271,1.157-0.809,1.475c-0.543,0.318-1.393,0.478-2.562,0.478h-2.345v0.863h17.964
		v-0.863L178.056,54.613L178.056,54.613z M151.161,44.955l6.073-13.8l6.222,13.8H151.161z"/>
	<path display="inline" fill="#11264E" d="M228.352,54.613c-1.787,0-3.158-0.317-4.117-0.952c-0.484-0.369-1.104-1.014-1.848-1.941
		c-0.748-0.921-1.537-2.007-2.361-3.267c-0.313-0.456-0.584-0.861-0.819-1.219c-0.235-0.354-0.599-0.882-1.086-1.594l-0.731-1.105
		c-1.239-0.281-2.346-0.593-3.324-0.942c-0.973-0.348-1.94-0.771-2.898-1.273c-0.962-0.501-2.033-1.139-3.215-1.905v-0.087
		c2.396,0,4.173-0.046,5.34-0.133c1.537-0.135,3.078-0.391,4.63-0.773c1.552-0.384,2.775-0.825,3.677-1.311
		c2.422-1.414,3.631-3.293,3.631-5.623c0-0.855-0.185-1.722-0.563-2.593c-0.374-0.868-0.881-1.628-1.516-2.263
		c-1.106-1.122-2.606-1.916-4.498-2.392c-1.89-0.473-4.46-0.707-7.712-0.707h-23.986v0.818h0.84c1.92,0,3.339,0.456,4.255,1.372
		c0.917,0.917,1.373,2.335,1.373,4.258v18.005c0,1.902-0.461,3.316-1.383,4.245c-0.927,0.922-2.34,1.382-4.245,1.382h-0.84v0.864
		h19.536v-0.864h-0.906c-1.895,0-3.303-0.466-4.234-1.398c-0.928-0.927-1.394-2.34-1.394-4.229v-8.66h6.954l10.697,15.151h11.611
		v-0.864H228.352z M199.958,39.507V25.353h8.945c5.981,0,8.973,2.347,8.973,7.041c0,1.641-0.328,2.98-0.983,4.021
		c-0.655,1.045-1.654,1.818-2.991,2.33c-1.336,0.507-3.047,0.763-5.131,0.763L199.958,39.507L199.958,39.507z"/>
	<path display="inline" fill="#11264E" d="M274.999,54.613c-0.847,0-1.578-0.123-2.197-0.364c-0.62-0.245-1.178-0.64-1.67-1.188
		c-0.496-0.547-0.94-1.237-1.342-2.077l-12.448-27.069h-0.818l-9.838,22.261c-1.49,3.351-3.017,5.633-4.582,6.842
		c-0.666,0.519-1.266,0.887-1.809,1.11c-0.538,0.221-1.266,0.385-2.182,0.487v0.863h12.605v-0.863
		c-0.594-0.031-1.045-0.087-1.361-0.169c-0.317-0.077-0.676-0.236-1.074-0.478c-0.604-0.338-1.096-0.84-1.475-1.506
		c-0.375-0.66-0.563-1.336-0.563-2.012c0-0.799,0.164-1.588,0.485-2.371l1-2.305h13.107l0.514,1.132
		c0.103,0.188,0.198,0.389,0.285,0.594c0.088,0.21,0.153,0.359,0.199,0.446c0.725,1.551,1.191,2.622,1.408,3.211
		c0.21,0.589,0.316,1.095,0.316,1.505c0,0.666-0.267,1.157-0.805,1.475c-0.543,0.318-1.393,0.478-2.561,0.478h-2.353v0.863h17.97
		v-0.863L274.999,54.613L274.999,54.613z M248.104,44.955l6.067-13.8l6.228,13.8H248.104z"/>
	<path display="inline" fill="#11264E" d="M327.528,54.613c-1.859,0-3.265-0.466-4.21-1.398c-0.942-0.927-1.413-2.34-1.413-4.229
		V32.194c-0.514-0.461-1.021-0.917-1.526-1.377c-1.815-1.641-3.609-3.31-5.387-4.994c0.251,0.728,0.374,1.593,0.374,2.597v10.866
		h-16.653V28.42c0-0.63,0.053-1.203,0.148-1.726c-1.342,1.255-2.693,2.494-4.057,3.728c-0.865,0.778-1.729,1.557-2.605,2.33v16.233
		c0,1.903-0.461,3.316-1.383,4.245c-0.928,0.922-2.34,1.383-4.246,1.383h-0.992v0.863h19.443v-0.863h-0.688
		c-1.857,0-3.262-0.466-4.21-1.398c-0.94-0.927-1.413-2.34-1.413-4.229v-8.792h16.653v8.792c0,1.903-0.461,3.316-1.383,4.245
		c-0.923,0.922-2.335,1.383-4.24,1.383h-0.646v0.863h19.344v-0.863L327.528,54.613L327.528,54.613z"/>
</g>
<g>
	<path fill="#FFFFFF" d="M43.809,86.45H41.88v3.458h-2.529v-11.51h4.7c2.751,0,4.406,1.623,4.406,3.983v0.032
		C48.457,85.069,46.391,86.45,43.809,86.45z M45.896,82.425c0-1.139-0.79-1.739-2.055-1.739h-1.96v3.521h2.002
		c1.265,0,2.002-0.76,2.002-1.738v-0.043H45.896z"/>
	<path fill="#FFFFFF" d="M65.553,89.896l-2.466-3.677h-1.992v3.677h-2.529V78.388h5.26c2.708,0,4.342,1.434,4.342,3.795v0.031
		c0,1.855-1.001,3.025-2.466,3.573l2.813,4.109H65.553z M65.605,82.319c0-1.086-0.758-1.646-1.992-1.646h-2.519v3.31h2.562
		c1.233,0,1.939-0.652,1.939-1.621v-0.043H65.605z"/>
	<path fill="#FFFFFF" d="M84.283,90.098c-3.553,0-6.103-2.646-6.103-5.923v-0.032c0-3.267,2.582-5.956,6.134-5.956
		c3.552,0,6.103,2.647,6.103,5.924v0.032C90.417,87.42,87.834,90.098,84.283,90.098z M87.76,84.153c0-1.971-1.443-3.615-3.489-3.615
		c-2.045,0-3.457,1.613-3.457,3.583v0.032c0,1.971,1.444,3.615,3.489,3.615c2.034,0,3.457-1.613,3.457-3.584V84.153z"/>
	<path fill="#FFFFFF" d="M105.351,86.45h-1.929v3.458h-2.529v-11.51h4.701c2.751,0,4.406,1.623,4.406,3.983v0.032
		C110.01,85.069,107.934,86.45,105.351,86.45z M107.438,82.425c0-1.139-0.791-1.739-2.056-1.739h-1.96v3.521h2.002
		c1.265,0,2.003-0.76,2.003-1.738v-0.043H107.438z"/>
	<path fill="#FFFFFF" d="M120.233,89.896V78.388h2.53v11.509H120.233z"/>
	<path fill="#FFFFFF" d="M133.872,89.896V78.388h8.685v2.256h-6.165v2.339h5.427v2.257h-5.427v2.412h6.25v2.257h-8.77V89.896z"/>
	<path fill="#FFFFFF" d="M157.608,89.896h-4.49V78.388h4.49c3.615,0,6.113,2.488,6.113,5.723v0.032
		C163.722,87.389,161.223,89.896,157.608,89.896z M161.076,84.153c0-2.035-1.402-3.468-3.467-3.468h-1.96v6.935h1.96
		c2.076,0,3.467-1.4,3.467-3.436V84.153z"/>
	<path fill="#FFFFFF" d="M181.956,89.896l-1.054-2.581h-4.87l-1.053,2.581h-2.583l4.932-11.593h2.34l4.932,11.593H181.956z
		 M178.467,81.349l-1.529,3.732h3.057L178.467,81.349z"/>
	<path fill="#FFFFFF" d="M199.104,89.896h-4.491V78.388h4.491c3.615,0,6.113,2.488,6.113,5.723v0.032
		C205.217,87.389,202.719,89.896,199.104,89.896z M202.571,84.153c0-2.035-1.401-3.468-3.467-3.468h-1.96v6.935h1.96
		c2.076,0,3.467-1.4,3.467-3.436V84.153z"/>
	<path fill="#FFFFFF" d="M215.704,89.896V78.388h8.685v2.256h-6.166v2.339h5.427v2.257h-5.427v2.412h6.25v2.257h-8.77V89.896z"/>
	<path fill="#FFFFFF" d="M239.05,90.064c-1.739,0-3.5-0.61-4.879-1.843l1.496-1.792c1.032,0.854,2.119,1.401,3.436,1.401
		c1.033,0,1.665-0.411,1.665-1.086v-0.031c0-0.643-0.39-0.969-2.318-1.465c-2.318-0.59-3.816-1.232-3.816-3.521v-0.029
		c0-2.088,1.677-3.469,4.027-3.469c1.676,0,3.109,0.527,4.279,1.466l-1.317,1.907c-1.022-0.705-2.024-1.139-2.994-1.139
		c-0.969,0-1.476,0.443-1.476,1.002v0.031c0,0.76,0.495,1.002,2.488,1.518c2.339,0.611,3.646,1.444,3.646,3.457v0.031
		C243.276,88.78,241.526,90.064,239.05,90.064z"/>
	<path fill="#FFFFFF" d="M271.322,86.45h-1.928v3.458h-2.53v-11.51h4.701c2.75,0,4.405,1.623,4.405,3.983v0.032
		C275.981,85.069,273.905,86.45,271.322,86.45z M273.421,82.425c0-1.139-0.791-1.739-2.056-1.739h-1.961v3.521h2.003
		c1.265,0,2.002-0.76,2.002-1.738v-0.043H273.421z"/>
	<path fill="#FFFFFF" d="M286.09,89.896V78.388h2.529V87.6h5.733v2.297H286.09L286.09,89.896z"/>
	<path fill="#FFFFFF" d="M313.061,89.896l-1.054-2.581h-4.869l-1.054,2.581h-2.583l4.934-11.593h2.339l4.933,11.593H313.061z
		 M309.582,81.349l-1.528,3.732h3.058L309.582,81.349z"/>
	<path fill="#FFFFFF" d="M329.45,80.728v9.181h-2.53v-9.181h-3.498v-2.34h9.539v2.34H329.45z"/>
	<path fill="#FFFFFF" d="M343.247,89.896V78.388h2.529v11.509H343.247z"/>
	<path fill="#FFFFFF" d="M364.96,89.896l-5.576-7.313v7.313h-2.498V78.388h2.34l5.396,7.084v-7.084h2.498v11.509H364.96z"/>
	<path fill="#FFFFFF" d="M382.908,90.087c-3.088,0-4.984-1.729-4.984-5.111v-6.577h2.529v6.513c0,1.877,0.938,2.847,2.486,2.847
		c1.55,0,2.488-0.938,2.488-2.763v-6.597h2.53v6.493C387.958,88.37,385.996,90.087,382.908,90.087z"/>
	<path fill="#FFFFFF" d="M407.763,89.896v-7.515l-3.236,4.922h-0.063l-3.204-4.869v7.462h-2.487V78.388h2.729l3.025,4.869
		l3.024-4.869h2.729v11.509H407.763z"/>
</g>
<rect x="-121.393" y="83.983" fill="#FFFFFF" width="145.398" height="1.835"/>
<rect x="425.342" y="83.983" fill="#FFFFFF" width="145.398" height="1.835"/>
<g>
	<g>
		<g>
			<path fill="#FFFFFF" d="M178.414,58.141c-0.886,0-1.655-0.127-2.308-0.38c-0.654-0.264-1.244-0.675-1.76-1.254
				c-0.517-0.579-0.991-1.307-1.412-2.192l-13.123-28.53h-0.864l-10.372,23.46c-1.57,3.532-3.183,5.935-4.827,7.209
				c-0.706,0.55-1.328,0.938-1.908,1.171c-0.569,0.231-1.328,0.401-2.297,0.517v0.917h13.28v-0.917
				c-0.622-0.031-1.096-0.095-1.433-0.179c-0.337-0.085-0.717-0.253-1.128-0.507c-0.643-0.357-1.159-0.885-1.549-1.591
				c-0.4-0.695-0.59-1.413-0.59-2.119c0-0.843,0.168-1.675,0.517-2.497l1.043-2.425H163.5l0.537,1.191
				c0.106,0.2,0.211,0.411,0.306,0.621c0.094,0.222,0.158,0.38,0.211,0.476c0.758,1.633,1.254,2.76,1.486,3.383
				c0.222,0.621,0.337,1.159,0.337,1.591c0,0.706-0.284,1.224-0.854,1.55c-0.569,0.337-1.465,0.506-2.698,0.506h-2.487v0.917h18.929
				v-0.917H178.414z M150.072,47.959l6.398-14.545l6.566,14.545H150.072z"/>
		</g>
		<g>
			<path fill="#FFFFFF" d="M224.979,44.618c-0.432,1.496-0.874,2.814-1.328,3.973c-0.452,1.149-0.927,2.13-1.422,2.941
				c-0.506,0.811-1.075,1.623-1.729,2.445c-1.086,1.317-2.372,2.35-3.858,3.089c-1.476,0.737-3.046,1.105-4.722,1.105h-8.453V33.225
				c0-2.024,0.485-3.521,1.455-4.491c0.958-0.969,2.444-1.443,4.458-1.443h2.361v-0.864h-22.25v0.864h1.17
				c3.952,0,5.923,1.972,5.923,5.935v18.972c0,3.983-1.971,5.976-5.923,5.976h-1.212l0.042,0.864h36.353V44.607h-0.865V44.618z"/>
		</g>
		<g>
			<path fill="#FFFFFF" d="M271.376,45.503c-0.748,2.329-1.424,4.101-2.023,5.291c-0.603,1.191-1.392,2.371-2.372,3.553
				c-2.15,2.55-5.049,3.837-8.706,3.837h-10.434l23.345-30.894v-0.864h-28.837v11.91h0.812c0.686-1.96,1.285-3.436,1.803-4.416
				c0.516-0.981,1.212-1.96,2.076-2.94c2.149-2.488,5.27-3.732,9.359-3.732h6.978l-23.462,30.894v0.917h32.315V45.514h-0.854V45.503
				z"/>
		</g>
		<g>
			<path fill="#FFFFFF" d="M313.208,26.437v0.864c1.287,0.031,2.278,0.127,2.962,0.284c0.686,0.158,1.339,0.422,1.961,0.812
				c2.172,1.339,3.267,3.878,3.267,7.61v11.678c0,3.427-0.927,6.093-2.771,7.979c-1.012,1.001-2.372,1.78-4.089,2.35
				c-1.719,0.569-3.553,0.854-5.534,0.854c-2.255,0-4.194-0.368-5.839-1.097c-1.633-0.738-2.888-1.771-3.752-3.13
				c-0.875-1.359-1.307-2.973-1.307-4.858V33.234c0-2.002,0.495-3.499,1.476-4.479c0.979-0.971,2.466-1.455,4.457-1.455h2.594
				v-0.864h-22.618v0.864h1.328c3.952,0,5.933,1.971,5.933,5.934v16.063c0,3.278,1.276,5.798,3.827,7.558
				c1.359,0.917,3.065,1.623,5.144,2.13c2.065,0.495,4.373,0.748,6.903,0.748c3.446,0,6.408-0.465,8.895-1.402
				c1.192-0.432,2.299-1.159,3.342-2.15c1.887-1.843,2.825-4.489,2.825-7.936V35.237c0-1.507,0.242-2.824,0.706-3.931
				c0.474-1.107,1.148-2.003,2.034-2.678c0.61-0.432,1.201-0.748,1.771-0.938c0.58-0.18,1.359-0.317,2.34-0.391v-0.864H313.208
				L313.208,26.437z"/>
		</g>
		<g>
			<path fill="#FFFFFF" d="M358.172,44.313v0.863h2.824c3.952,0,5.935,1.982,5.935,5.936v1.675c0,1.771-0.77,3.194-2.309,4.258
				c-0.811,0.549-1.876,0.981-3.204,1.317c-1.317,0.339-2.646,0.507-3.964,0.507c-1.031,0-2.002-0.104-2.939-0.316
				c-0.939-0.21-1.823-0.548-2.646-0.991c-0.832-0.453-1.561-0.98-2.172-1.592c-0.611-0.61-1.158-1.317-1.645-2.128
				c-0.284-0.495-0.537-1.139-0.769-1.929c-0.242-0.78-0.433-1.593-0.591-2.403c-0.146-0.822-0.273-1.75-0.369-2.814
				c-0.095-1.054-0.137-2.118-0.137-3.193c0-3.594,0.295-6.535,0.875-8.802c0.58-2.275,1.519-4.057,2.814-5.343
				c0.779-0.781,1.802-1.402,3.057-1.865c1.265-0.475,2.529-0.706,3.805-0.706c2.467,0,4.85,0.643,7.188,1.938
				c2.328,1.286,4.247,3.047,5.775,5.271c0.548,0.77,1.043,1.644,1.496,2.645c0.454,1.002,0.939,2.361,1.477,4.06h0.77
				l-0.231-14.082h-0.865c-0.664,1.011-1.275,1.738-1.834,2.191c-0.548,0.455-1.117,0.675-1.687,0.675
				c-0.558,0-1.528-0.348-2.919-1.043c-1.854-0.916-3.553-1.592-5.102-1.991c-1.549-0.411-3.13-0.623-4.754-0.623
				c-1.622,0-3.246,0.232-4.869,0.685c-1.623,0.453-3.173,1.087-4.627,1.92c-1.454,0.821-2.783,1.833-3.994,3.034
				c-1.043,1.075-1.919,2.203-2.614,3.404c-0.707,1.202-1.232,2.499-1.613,3.89c-0.379,1.392-0.558,2.804-0.558,4.236
				c0,2.361,0.484,4.574,1.443,6.631c0.97,2.055,2.319,3.846,4.08,5.354c1.749,1.519,3.814,2.688,6.186,3.51
				c2.372,0.822,4.934,1.232,7.674,1.232c1.443,0,2.666-0.104,3.667-0.314c1.003-0.211,2.341-0.622,4.037-1.223
				c1.044-0.433,1.855-0.729,2.435-0.854c0.591-0.137,1.223-0.2,1.909-0.2c0.778,0,1.422,0.105,1.948,0.326
				c0.527,0.223,1.14,0.654,1.835,1.309h0.864V51.1c0-2.002,0.484-3.499,1.454-4.468c0.969-0.981,2.467-1.466,4.469-1.466h0.749
				v-0.864h-22.355V44.313z"/>
		</g>
		<g>
			<path fill="#FFFFFF" d="M425.911,58.141c-0.885,0-1.654-0.127-2.319-0.38c-0.652-0.264-1.243-0.675-1.76-1.254
				c-0.526-0.579-0.99-1.307-1.412-2.192l-13.122-28.53h-0.864l-10.36,23.46c-1.582,3.532-3.183,5.935-4.838,7.209
				c-0.707,0.55-1.328,0.938-1.897,1.171c-0.568,0.231-1.338,0.401-2.298,0.517v0.917h13.28v-0.917
				c-0.621-0.031-1.097-0.095-1.434-0.179c-0.337-0.085-0.717-0.253-1.138-0.507c-0.632-0.357-1.16-0.885-1.549-1.591
				c-0.401-0.695-0.602-1.413-0.602-2.119c0-0.843,0.169-1.675,0.518-2.497l1.053-2.425h13.818l0.537,1.191
				c0.105,0.2,0.211,0.411,0.306,0.621c0.095,0.222,0.169,0.38,0.211,0.476c0.769,1.633,1.254,2.76,1.485,3.383
				c0.231,0.621,0.338,1.159,0.338,1.591c0,0.706-0.284,1.224-0.854,1.55c-0.57,0.337-1.466,0.506-2.698,0.506h-2.477v0.917h18.93
				v-0.917H425.911z M397.569,47.959l6.398-14.545l6.556,14.545H397.569z"/>
		</g>
		<g>
			<path fill="#FFFFFF" d="M481.698,58.141c-1.886,0-3.329-0.337-4.342-1.001c-0.517-0.391-1.169-1.064-1.949-2.045
				c-0.791-0.97-1.623-2.119-2.488-3.447c-0.326-0.484-0.611-0.906-0.864-1.285c-0.252-0.37-0.632-0.927-1.148-1.676l-0.769-1.17
				c-1.308-0.296-2.478-0.623-3.5-0.991c-1.022-0.369-2.046-0.812-3.056-1.35c-1.013-0.526-2.14-1.201-3.385-2.002v-0.095
				c2.52,0,4.395-0.053,5.629-0.137c1.623-0.137,3.246-0.411,4.88-0.812s2.931-0.865,3.879-1.382
				c2.55-1.485,3.826-3.467,3.826-5.923c0-0.906-0.19-1.813-0.591-2.729c-0.389-0.918-0.928-1.72-1.603-2.384
				c-1.17-1.181-2.75-2.022-4.742-2.518c-1.992-0.496-4.701-0.748-8.127-0.748h-25.284v0.863h0.885c2.024,0,3.521,0.484,4.49,1.444
				c0.969,0.969,1.444,2.466,1.444,4.49v18.971c0,2.003-0.485,3.499-1.455,4.479c-0.979,0.971-2.466,1.454-4.479,1.454h-0.885v0.918
				h20.595V58.15H457.7c-1.992,0-3.479-0.495-4.459-1.475c-0.979-0.98-1.475-2.467-1.475-4.459V43.09h7.325l11.277,15.968h12.227
				v-0.917H481.698L481.698,58.141z M451.776,42.215V27.301h9.433c6.304,0,9.455,2.478,9.455,7.421c0,1.728-0.349,3.141-1.033,4.236
				c-0.695,1.096-1.738,1.918-3.15,2.456c-1.412,0.537-3.216,0.801-5.407,0.801H451.776z"/>
		</g>
		<g>
			<path fill="#FFFFFF" d="M530.868,58.141c-0.896,0-1.666-0.127-2.319-0.38c-0.653-0.264-1.244-0.675-1.76-1.254
				c-0.527-0.579-0.991-1.307-1.412-2.192l-13.123-28.53h-0.863l-10.36,23.46c-1.582,3.532-3.185,5.935-4.839,7.209
				c-0.706,0.55-1.327,0.938-1.897,1.171c-0.568,0.231-1.338,0.401-2.308,0.517v0.917h13.291v-0.917
				c-0.622-0.031-1.097-0.095-1.434-0.179c-0.337-0.085-0.717-0.253-1.139-0.507c-0.632-0.357-1.16-0.885-1.549-1.591
				c-0.391-0.695-0.591-1.413-0.591-2.119c0-0.843,0.169-1.675,0.517-2.497l1.054-2.425h13.817l0.538,1.191
				c0.105,0.2,0.211,0.411,0.306,0.621c0.095,0.222,0.169,0.38,0.211,0.476c0.758,1.633,1.254,2.76,1.486,3.383
				c0.231,0.621,0.337,1.159,0.337,1.591c0,0.706-0.284,1.224-0.854,1.55c-0.569,0.337-1.465,0.506-2.698,0.506h-2.478v0.917h18.93
				v-0.917H530.868z M502.516,47.959l6.398-14.545l6.565,14.545H502.516z"/>
		</g>
		<g>
			<path fill="#FFFFFF" d="M561.813,26.437v0.864h2.15c1.37,0,2.487,0.316,3.331,0.96c0.854,0.642,1.285,1.475,1.285,2.497
				c0,0.886-0.496,1.95-1.465,3.204l-7.262,9.55l-8.105-11.184c-0.77-1.106-1.223-1.802-1.38-2.086
				c-0.159-0.296-0.232-0.602-0.232-0.929c0-0.653,0.274-1.159,0.801-1.518c0.537-0.357,1.285-0.537,2.256-0.537h2.424v-0.811
				h-20.901v0.863h0.58c1.897,0,3.447,0.326,4.647,0.99c1.202,0.654,2.425,1.845,3.669,3.553l9.76,13.333v7.029
				c0,2.003-0.485,3.499-1.454,4.479c-0.971,0.971-2.456,1.454-4.47,1.454h-2.286v0.918h23.229V58.15h-2.192
				c-1.992,0-3.478-0.495-4.458-1.475c-0.98-0.98-1.476-2.467-1.476-4.459v-7.894l8.221-10.856c0.748-0.97,1.518-1.833,2.319-2.613
				c0.801-0.78,1.581-1.392,2.329-1.855c0.748-0.465,1.561-0.833,2.444-1.117c0.887-0.284,1.887-0.496,2.994-0.622v-0.811h-16.759
				V26.437z"/>
		</g>
	</g>
</g>
<g>
	<g>
		<path fill="#FFFFFF" d="M60.768,39.991c2.076-2.783,4.29-5.417,6.493-8.063c2.224-2.636,4.5-5.207,6.798-7.758
			c2.308-2.539,4.638-5.058,7.009-7.546c2.361-2.487,4.764-4.933,7.188-7.368l1.624-1.633l1.623,1.633l3.72,3.753l3.679,3.795
			c2.423,2.551,4.848,5.122,7.209,7.735c2.372,2.614,4.711,5.26,6.998,7.958c2.266,2.72,4.543,5.428,6.662,8.284
			c-2.856-2.119-5.565-4.405-8.284-6.661c-2.698-2.287-5.344-4.627-7.958-6.999c-2.624-2.36-5.186-4.784-7.736-7.209l-3.794-3.677
			l-3.752-3.722h3.247c-2.435,2.423-4.88,4.816-7.368,7.188c-2.476,2.371-4.995,4.7-7.546,7.009
			c-2.551,2.298-5.133,4.573-7.757,6.799C66.196,35.712,63.55,37.915,60.768,39.991z"/>
	</g>
	<g>
		<path fill="#FFFFFF" d="M-93.462,46.642c-0.432-0.98-1.033-1.834-1.813-2.562c-1.001-1.001-2.203-1.802-3.625-2.403
			c-1.413-0.601-3.668-1.306-6.746-2.097l-1.823-0.475l-1.148-0.284c-0.201-0.032-0.591-0.127-1.149-0.306
			c-2.055-0.495-3.657-0.918-4.795-1.255c-1.148-0.347-2.076-0.695-2.804-1.053c-0.727-0.36-1.275-0.738-1.675-1.129
			c-0.833-0.79-1.254-1.729-1.254-2.824c0-0.579,0.147-1.181,0.442-1.804c0.295-0.62,0.696-1.18,1.191-1.685
			c0.696-0.696,1.55-1.224,2.562-1.592c1.012-0.358,2.161-0.539,3.457-0.539c1.729,0,3.436,0.233,5.122,0.687
			c1.687,0.463,3.215,1.085,4.574,1.896c1.36,0.802,2.499,1.729,3.394,2.794c1.244,1.506,2.361,3.615,3.341,6.303h0.812V27.132
			h-0.812c-0.527,1.793-1.401,2.688-2.614,2.688c-0.485,0-1.391-0.338-2.729-1.002c-3.816-1.971-7.494-2.962-11.046-2.962
			c-2.351,0-4.49,0.401-6.419,1.212c-1.929,0.813-3.436,1.93-4.511,3.374c-1.075,1.433-1.612,3.057-1.612,4.868
			c0,1.486,0.484,2.856,1.454,4.11c0.654,0.887,1.422,1.624,2.319,2.193c0.896,0.579,2.129,1.159,3.699,1.728
			c1.402,0.549,3.921,1.308,7.557,2.287l2.34,0.633c1.908,0.518,3.415,0.959,4.522,1.328c1.096,0.369,1.992,0.738,2.688,1.097
			c0.695,0.358,1.254,0.749,1.696,1.17c0.949,0.948,1.423,2.022,1.423,3.204c0,1.128-0.348,2.129-1.054,3.015
			c-0.707,0.885-1.676,1.58-2.93,2.075c-1.255,0.496-2.636,0.749-4.143,0.749c-1.697,0-3.489-0.306-5.375-0.906
			c-1.887-0.611-3.679-1.466-5.408-2.562c-1.718-1.095-3.13-2.287-4.237-3.562c-1.833-2.172-2.919-4.607-3.247-7.284h-0.822v15.082
			h0.822c0.253-1.074,0.759-1.896,1.528-2.485c0.77-0.58,1.708-0.876,2.815-0.876c0.579,0,1.19,0.095,1.844,0.273
			c0.654,0.18,1.602,0.518,2.846,1.013c1.908,0.812,3.531,1.37,4.869,1.665c1.328,0.307,2.751,0.463,4.259,0.463
			c2.161,0,4.089-0.295,5.775-0.885c1.686-0.59,3.109-1.476,4.258-2.656c0.886-0.854,1.57-1.843,2.056-2.973
			c0.484-1.127,0.727-2.254,0.727-3.372C-92.82,48.687-93.041,47.633-93.462,46.642z"/>
	</g>
	<g>
		<path fill="#FFFFFF" d="M-46.465,58.225c-0.885,0-1.655-0.127-2.318-0.379c-0.654-0.264-1.244-0.675-1.761-1.254
			c-0.526-0.58-0.991-1.308-1.412-2.193l-13.122-28.53h-0.864l-10.36,23.461c-1.581,3.531-3.184,5.935-4.838,7.209
			c-0.707,0.548-1.329,0.938-1.897,1.171c-0.569,0.232-1.338,0.4-2.298,0.516v0.917h13.28v-0.917
			c-0.622-0.031-1.096-0.094-1.433-0.179c-0.337-0.084-0.717-0.253-1.139-0.506c-0.632-0.357-1.159-0.886-1.549-1.593
			c-0.391-0.694-0.59-1.411-0.59-2.118c0-0.842,0.168-1.675,0.516-2.497l1.055-2.424h13.818l0.537,1.19
			c0.106,0.2,0.211,0.411,0.306,0.622c0.096,0.222,0.169,0.379,0.211,0.474c0.77,1.635,1.254,2.762,1.486,3.384
			c0.231,0.622,0.337,1.16,0.337,1.592c0,0.705-0.285,1.222-0.854,1.549c-0.569,0.337-1.465,0.506-2.698,0.506h-2.477v0.917h18.93
			v-0.917H-46.465z M-74.807,48.054l6.398-14.544l6.556,14.544H-74.807z"/>
	</g>
	<g>
		<path fill="#FFFFFF" d="M6.55,58.225c-1.886,0-3.331-0.338-4.342-1.001c-0.517-0.391-1.17-1.064-1.95-2.045
			c-0.791-0.97-1.623-2.118-2.487-3.446c-0.327-0.484-0.612-0.906-0.864-1.286c-0.253-0.369-0.633-0.927-1.149-1.676l-0.769-1.17
			c-1.308-0.295-2.477-0.622-3.5-0.991c-1.022-0.369-2.044-0.811-3.056-1.349c-1.012-0.527-2.14-1.201-3.395-2.003v-0.095
			c2.53,0,4.396-0.053,5.629-0.137c1.623-0.136,3.247-0.41,4.879-0.812c1.634-0.399,2.93-0.864,3.879-1.381
			c2.551-1.486,3.826-3.467,3.826-5.924c0-0.905-0.19-1.813-0.59-2.729c-0.39-0.917-0.928-1.719-1.602-2.383
			c-1.17-1.181-2.751-2.022-4.744-2.519c-1.991-0.495-4.701-0.749-8.125-0.749h-25.286v0.864h0.886c2.024,0,3.52,0.485,4.49,1.444
			c0.97,0.97,1.444,2.467,1.444,4.49v18.971c0,2.003-0.484,3.5-1.454,4.479c-0.98,0.971-2.467,1.455-4.48,1.455h-0.886v0.917H-16.5
			v-0.917h-0.958c-1.992,0-3.479-0.495-4.459-1.476c-0.98-0.98-1.465-2.466-1.465-4.459v-9.127h7.326L-4.78,59.142H7.457v-0.917
			H6.55L6.55,58.225z M-23.372,42.311V27.396h9.433c6.303,0,9.454,2.478,9.454,7.421c0,1.728-0.348,3.141-1.033,4.236
			c-0.695,1.097-1.738,1.918-3.151,2.455c-1.412,0.538-3.214,0.803-5.407,0.803H-23.372z"/>
	</g>
	<g>
		<path fill="#FFFFFF" d="M55.719,58.225c-0.896,0-1.665-0.127-2.318-0.379c-0.654-0.264-1.244-0.675-1.76-1.254
			c-0.527-0.58-0.991-1.308-1.412-2.193l-13.122-28.53h-0.865L25.87,49.329c-1.57,3.531-3.183,5.935-4.827,7.209
			c-0.707,0.548-1.329,0.938-1.908,1.171c-0.569,0.232-1.328,0.4-2.297,0.516v0.917h13.291v-0.917
			c-0.622-0.031-1.096-0.094-1.434-0.179c-0.337-0.084-0.717-0.253-1.138-0.506c-0.632-0.357-1.159-0.886-1.549-1.593
			c-0.39-0.694-0.591-1.411-0.591-2.118c0-0.842,0.169-1.675,0.517-2.497l1.053-2.424h13.818l0.538,1.19
			c0.105,0.2,0.211,0.411,0.305,0.622c0.095,0.222,0.158,0.379,0.211,0.474c0.759,1.635,1.254,2.762,1.486,3.384
			c0.221,0.622,0.337,1.16,0.337,1.592c0,0.705-0.285,1.222-0.843,1.549c-0.569,0.337-1.465,0.506-2.698,0.506h-2.477v0.917h18.94
			v-0.917H55.719z M27.367,48.054l6.398-14.544l6.566,14.544H27.367z"/>
	</g>
	<g>
		<path fill="#FFFFFF" d="M111.085,58.225c-1.96,0-3.436-0.495-4.437-1.476c-0.991-0.979-1.486-2.467-1.486-4.458V34.595
			c-0.538-0.485-1.076-0.97-1.613-1.454c-1.918-1.729-3.805-3.489-5.681-5.26c0.263,0.77,0.39,1.675,0.39,2.739v11.457H80.709V30.62
			c0-0.664,0.053-1.264,0.158-1.823c-1.412,1.318-2.835,2.625-4.279,3.932c-0.917,0.822-1.823,1.644-2.75,2.456v17.106
			c0,2.003-0.485,3.499-1.455,4.479c-0.98,0.97-2.466,1.454-4.479,1.454h-1.044v0.917h20.49v-0.917h-0.728
			c-1.96,0-3.436-0.495-4.438-1.476c-0.991-0.979-1.486-2.467-1.486-4.458v-9.265h17.549v9.265c0,2.003-0.485,3.499-1.455,4.479
			c-0.969,0.97-2.465,1.454-4.469,1.454h-0.685v0.917h20.385v-0.917H111.085z"/>
	</g>
</g>
</svg>
